<?xml version="1.0" encoding="UTF-8"?>
<svg id="Capa_2" data-name="Capa 2" xmlns="http://www.w3.org/2000/svg" xmlns:xlink="http://www.w3.org/1999/xlink" viewBox="0 0 152.47 147.98">
  <defs>
    <style>
      .cls-1 {
        fill-rule: evenodd;
      }

      .cls-1, .cls-2, .cls-3, .cls-4 {
        stroke-width: 0px;
      }

      .cls-1, .cls-4 {
        fill: #fff;
      }

      .cls-2 {
        fill: none;
      }

      .cls-5 {
        clip-path: url(#clippath);
      }

      .cls-3 {
        fill: #262626;
      }

      .cls-6 {
        mask: url(#mask);
      }
    </style>
    <clipPath id="clippath">
      <rect class="cls-2" x="0" width="152.47" height="147.98"/>
    </clipPath>
    <mask id="mask" x="20.03" y="49.84" width="100.31" height="65.93" maskUnits="userSpaceOnUse">
      <g id="mask0_3_1257" data-name="mask0 3 1257">
        <path class="cls-1" d="M103.92,50.98c-1.02.21-2.54.52-4.02.8-2.23.45-5.81,1.58-8.22,2.6l-4.22,1.79c-7.88-.93-10.86-1.22-11.69-1.22-1.32,0-2.11.49-6.37,3.98-2.68,2.15-6.87,5.81-9.32,8.08-2.49,2.23-6.3,6.09-8.53,8.53-2.38,2.56-4.07,4.71-4.07,5.2,0,.77.15.81,2.72.53,1.44-.16,3.61-.42,4.95-.59h0s.18-.02.18-.02c1.77-.24,2.34-.2,2.34.2,0,.24-.57,1.14-1.24,1.95-1.13,1.38-1.21,1.62-.98,3.57.15,1.14.72,3.17,1.32,4.51.64,1.5,1.85,3.29,3.13,4.63l2.11,2.19c3.51-.45,4.34-.37,4.34-.12s-1.17,2.15-2.64,4.26c-1.51,2.19-2.57,4.1-2.45,4.47.11.33.57.61,1.02.61.49,0,3.58-.81,6.9-1.79,3.32-.97,8.75-2.88,12.07-4.22,3.32-1.34,7.58-3.13,9.43-3.98,1.85-.85,3.89-1.95,4.49-2.4.75-.57,1.58-2.07,2.72-4.87.9-2.23,1.66-4.18,1.66-4.35,0-.2-1.66.41-3.7,1.26-2,.89-5.21,2.11-7.05,2.68-1.85.61-3.62,1.02-3.92.93-.3-.04.64-.65,2.07-1.3,1.43-.65,4.72-2.32,7.32-3.74,2.6-1.42,6.34-3.7,8.3-5.12,1.96-1.42,4.98-4.02,6.71-5.81,1.77-1.79,3.92-4.35,4.83-5.69.87-1.34,2.26-3.98,3.09-5.89.83-1.91,1.66-4.3,1.92-5.36.23-1.1.41-2.48.41-3.17,0-1.06-.19-1.3-1.62-1.83-.87-.33-2.34-.77-3.28-.97-.94-.24-3.24-.49-5.09-.57-1.85-.12-3.92-.12-4.53,0-.21.04-.59.12-1.08.22ZM48.22,86.42l-2.72.81c-19.69,21.65-25.05,27.82-24.63,27.7.41-.16,4.3-1.26,8.68-2.48,4.38-1.22,10.9-3.05,14.52-4.1,3.62-1.02,7.7-2.19,9.05-2.64,1.92-.61,2.83-1.22,4.34-2.8l1.89-2.03c-3.4-3.98-4.83-5.93-5.39-6.94-.53-1.02-1.43-3.29-2-5.08l-1.02-3.25-2.72.81ZM100.37,58.36c-1.32.26-3.92,1.02-5.79,1.66-1.83.64-4.73,1.88-6.38,2.71-1.69.87-4.62,2.63-6.53,3.91-1.91,1.32-5.06,3.69-6.97,5.27-1.91,1.58-5.35,4.63-7.63,6.77-2.24,2.18-4.03,4.03-3.92,4.14.11.11,1.87-1.05,3.96-2.56,2.05-1.5,6.45-4.55,9.79-6.73,3.34-2.18,7.77-4.93,9.9-6.06,2.13-1.17,5.65-2.86,7.89-3.8,2.24-.9,6.01-2.26,8.44-2.97s5.5-1.54,6.89-1.81c1.36-.3,2.46-.64,2.46-.83,0-.15-2.2-.26-4.88-.23-2.64,0-5.9.26-7.22.53Z"/>
      </g>
    </mask>
  </defs>
  <g id="Capa_1-2" data-name="Capa 1">
    <g class="cls-5">
      <g>
        <path class="cls-3" d="M124.95,0H27.47C12.3,0,0,12.46,0,27.83v92.32c0,15.37,12.3,27.83,27.47,27.83h97.48c15.17,0,27.47-12.46,27.47-27.83V27.83c0-15.37-12.3-27.83-27.47-27.83Z"/>
        <path class="cls-4" d="M117.28,38.94c-.22.03-.43-.09-.5-.31-1.75-5.31-2.52-5.9-8.04-6.15-.23,0-.4-.17-.43-.4-.03-.23.09-.43.31-.5,5.25-1.78,5.82-2.55,6.08-8.14,0-.23.17-.41.39-.44.22-.03.43.09.5.31,1.75,5.31,2.52,5.9,8.04,6.15.23,0,.4.17.43.4.03.23-.09.43-.31.5-5.25,1.78-5.82,2.55-6.08,8.14,0,.23-.17.41-.39.44Z"/>
        <path class="cls-4" d="M109.38,43.17c-.08.02-.15-.02-.18-.1-.73-1.8-1-1.98-2.92-1.94-.08,0-.14-.05-.16-.13-.02-.08.02-.15.1-.18,1.78-.74,1.96-1.02,1.92-2.96,0-.08.05-.15.13-.16.08-.02.15.02.18.1.73,1.8,1,1.98,2.92,1.94.08,0,.14.05.16.13.02.08-.02.15-.1.18-1.78.74-1.96,1.02-1.92,2.96,0,.08-.05.15-.13.16Z"/>
        <path class="cls-4" d="M128.9,44.09c-.11.02-.21-.05-.24-.15-.86-2.61-1.23-2.89-3.95-3.02-.11,0-.2-.09-.21-.2-.02-.11.04-.21.15-.25,2.58-.87,2.86-1.25,2.98-4,0-.11.08-.2.19-.22.11-.02.21.05.24.15.86,2.61,1.23,2.89,3.95,3.02.11,0,.2.09.21.2.02.11-.04.21-.15.25-2.58.87-2.86,1.25-2.98,4,0,.11-.08.2-.19.22Z"/>
        <path class="cls-1" d="M103.92,50.98c-1.02.21-2.54.52-4.02.8-2.23.45-5.81,1.58-8.22,2.6l-4.22,1.79c-7.88-.93-10.86-1.22-11.69-1.22-1.32,0-2.11.49-6.37,3.98-2.68,2.15-6.87,5.81-9.32,8.08-2.49,2.23-6.3,6.09-8.53,8.53-2.38,2.56-4.07,4.71-4.07,5.2,0,.77.15.81,2.72.53,1.44-.16,3.61-.42,4.95-.59h0s.18-.02.18-.02c1.77-.24,2.34-.2,2.34.2,0,.24-.57,1.14-1.24,1.95-1.13,1.38-1.21,1.62-.98,3.57.15,1.14.72,3.17,1.32,4.51.64,1.5,1.85,3.29,3.13,4.63l2.11,2.19c3.51-.45,4.34-.37,4.34-.12s-1.17,2.15-2.64,4.26c-1.51,2.19-2.57,4.1-2.45,4.47.11.33.57.61,1.02.61.49,0,3.58-.81,6.9-1.79,3.32-.97,8.75-2.88,12.07-4.22,3.32-1.34,7.58-3.13,9.43-3.98,1.85-.85,3.89-1.95,4.49-2.4.75-.57,1.58-2.07,2.72-4.87.9-2.23,1.66-4.18,1.66-4.35,0-.2-1.66.41-3.7,1.26-2,.89-5.21,2.11-7.05,2.68-1.85.61-3.62,1.02-3.92.93-.3-.04.64-.65,2.07-1.3,1.43-.65,4.72-2.32,7.32-3.74,2.6-1.42,6.34-3.7,8.3-5.12,1.96-1.42,4.98-4.02,6.71-5.81,1.77-1.79,3.92-4.35,4.83-5.69.87-1.34,2.26-3.98,3.09-5.89.83-1.91,1.66-4.3,1.92-5.36.23-1.1.41-2.48.41-3.17,0-1.06-.19-1.3-1.62-1.83-.87-.33-2.34-.77-3.28-.97-.94-.24-3.24-.49-5.09-.57-1.85-.12-3.92-.12-4.53,0-.21.04-.59.12-1.08.22ZM48.22,86.42l-2.72.81c-19.69,21.65-25.05,27.82-24.63,27.7.41-.16,4.3-1.26,8.68-2.48,4.38-1.22,10.9-3.05,14.52-4.1,3.62-1.02,7.7-2.19,9.05-2.64,1.92-.61,2.83-1.22,4.34-2.8l1.89-2.03c-3.4-3.98-4.83-5.93-5.39-6.94-.53-1.02-1.43-3.29-2-5.08l-1.02-3.25-2.72.81ZM100.37,58.36c-1.32.26-3.92,1.02-5.79,1.66-1.83.64-4.73,1.88-6.38,2.71-1.69.87-4.62,2.63-6.53,3.91-1.91,1.32-5.06,3.69-6.97,5.27-1.91,1.58-5.35,4.63-7.63,6.77-2.24,2.18-4.03,4.03-3.92,4.14.11.11,1.87-1.05,3.96-2.56,2.05-1.5,6.45-4.55,9.79-6.73,3.34-2.18,7.77-4.93,9.9-6.06,2.13-1.17,5.65-2.86,7.89-3.8,2.24-.9,6.01-2.26,8.44-2.97s5.5-1.54,6.89-1.81c1.36-.3,2.46-.64,2.46-.83,0-.15-2.2-.26-4.88-.23-2.64,0-5.9.26-7.22.53Z"/>
        <g class="cls-6">
          <path class="cls-4" d="M103.92,50.98l.16.82h0s0,0,0,0l-.17-.82ZM103.92,50.98l-.16-.82h0s0,0,0,0l.17.82ZM99.9,51.78l-.15-.82h0s0,0,0,0l.16.82ZM91.68,54.38l-.32-.77h0s.32.77.32.77ZM87.45,56.16l-.1.83.21.03.2-.08-.32-.77ZM69.38,58.93l.51.65h0s0,0,0,0l-.52-.65ZM60.07,67.01l.55.62h0s0,0,0,0l-.56-.61ZM51.54,75.54l.6.57h0s0,0,0,0l-.6-.57ZM50.18,81.26l-.09-.83h0l.09.83ZM55.13,80.68l-.1-.83h0l.1.83ZM55.13,80.68l.1.83h.03s.03-.01.03-.01l-.16-.82ZM55.13,80.68l-.1-.83h-.03s-.03.01-.03.01l.16.82ZM55.13,80.68l.1.83h0s0,0,0,0l-.1-.83ZM55.31,80.66l.1.83h0s0,0,0,0l-.11-.83ZM56.41,82.81l-.63-.54h0s0,0,0,0l.63.53ZM55.43,86.38l-.82.1h0s0,.01,0,.01l.82-.11ZM56.75,90.89l.75-.33h0s0-.02,0-.02l-.75.35ZM59.88,95.52l-.59.58h0s0,0,0,0l.59-.58ZM61.99,97.71l-.59.58.29.3.41-.05-.1-.83ZM63.69,101.86l-.67-.48h0s0,0,0,0l.67.48ZM61.24,106.32l-.78.25h0s0,.03,0,.03l.78-.28ZM95.15,94.55l.49.67h0s0,0,0,0l-.49-.67ZM97.86,89.67l-.76-.32h0s.76.32.76.32ZM95.83,86.58l-.31-.77h0s0,0,0,0l.33.76ZM88.77,89.27l-.24-.8h0s0,0,0,0l.25.79ZM84.85,90.2l.21-.81h-.05s-.05-.02-.05-.02l-.11.83ZM109.26,74.24l-.58-.59h0s0,0,0,0l.59.58ZM114.08,68.55l.68.47h0s0-.01,0-.01l-.69-.46ZM119.1,57.3l.8.2v-.02s0-.02,0-.02l-.8-.17ZM117.89,52.31l-.28.78h0s0,0,0,0l.28-.78ZM114.61,51.33l-.2.81h.02s.02,0,.02,0l.17-.81ZM109.52,50.76l-.05.83h0s0,0,0,0l.04-.83ZM104.99,50.76l.15.82h0s0,0,0,0l-.16-.82ZM45.51,87.23l-.23-.8-.22.07-.15.17.6.56ZM20.87,114.93l.23.8h.03s.03-.02.03-.02l-.3-.78ZM44.07,108.35l-.22-.8h0s0,0,0,0l.23.8ZM53.13,105.71l-.25-.8h0s0,0,0,0l.25.79ZM57.46,102.91l.59.58h0s0,0,0,0l-.6-.57ZM59.35,100.88l.6.57.51-.55-.48-.57-.62.54ZM53.96,93.94l-.73.39h0s0,.02,0,.02l.72-.41ZM51.96,88.86l-.78.25h0s0,0,0,0l.78-.25ZM50.94,85.61l.78-.25-.24-.78-.77.23.23.8ZM94.57,60.02l-.26-.79h0s0,0,0,0l.27.79ZM88.19,62.73l-.36-.75h0s0,0,0,0l.37.74ZM81.66,66.64l-.45-.7h0s0,0,0,0l.46.69ZM67.07,78.68l-.56-.61h0s0,0,0,0l.57.6ZM67.1,80.26l.48.68h0s0,0,0,0l-.48-.68ZM86.8,67.47l.38.74h0s0,0,0,0l-.39-.73ZM94.68,63.67l-.3-.77h0s0,0,0,0l.32.77ZM110.01,58.89l.15.82h.01s.01,0,.01,0l-.18-.81ZM107.59,57.84v.83h.01v-.83ZM100.05,52.6c1.49-.28,3.01-.59,4.03-.8l-.33-1.63c-1.02.21-2.53.52-4,.79l.3,1.64ZM91.99,55.15c2.37-1,5.9-2.12,8.07-2.55l-.32-1.63c-2.29.46-5.92,1.61-8.38,2.65l.63,1.54ZM87.77,56.93l4.22-1.79-.63-1.54-4.22,1.79.63,1.54ZM75.76,55.78c.77,0,3.68.27,11.6,1.21l.19-1.66c-7.85-.93-10.9-1.22-11.79-1.22v1.67ZM69.9,59.57c2.14-1.76,3.36-2.71,4.2-3.24.41-.26.7-.39.94-.46.23-.07.44-.09.71-.09v-1.67c-.39,0-.77.04-1.19.17-.42.13-.84.33-1.32.64-.95.59-2.26,1.63-4.38,3.36l1.03,1.3ZM60.62,67.62c2.44-2.26,6.61-5.91,9.27-8.04l-1.02-1.31c-2.7,2.17-6.9,5.84-9.36,8.12l1.11,1.23ZM52.15,76.1c2.21-2.42,6-6.26,8.47-8.47l-1.09-1.25c-2.51,2.26-6.34,6.14-8.58,8.59l1.21,1.13ZM48.29,80.74c0,.13-.04.19,0,.1.03-.06.08-.16.17-.3.17-.28.44-.65.79-1.1.7-.9,1.7-2.05,2.88-3.32l-1.2-1.14c-1.2,1.29-2.23,2.49-2.97,3.43-.37.47-.67.89-.89,1.23-.11.17-.2.34-.28.5-.06.13-.16.36-.16.61h1.64ZM50.09,80.44c-.64.07-1.12.12-1.47.14-.37.02-.54.01-.6,0-.03,0,.14.03.24.23.05.1.03.15.03-.07h-1.64c0,.17,0,.51.15.83.21.41.58.59.91.65.29.06.64.05,1.02.03.4-.03.9-.08,1.54-.15l-.18-1.66ZM55.03,79.85c-1.34.17-3.5.43-4.94.59l.17,1.66c1.45-.16,3.62-.42,4.96-.59l-.2-1.65ZM55.04,79.85h0l.19,1.65h0l-.19-1.65ZM55.04,79.85h0l.19,1.66h0l-.19-1.66ZM55.21,79.83l-.18.02.2,1.65.18-.02-.2-1.65ZM58.48,80.86c0-.34-.14-.69-.47-.92-.26-.19-.57-.24-.79-.26-.47-.04-1.14.03-2.01.15l.22,1.65c.9-.12,1.4-.16,1.66-.14.14.01.09.03-.01-.04-.17-.12-.24-.31-.24-.45h1.64ZM57.04,83.35c.36-.43.69-.89.94-1.27.12-.19.23-.38.32-.55.04-.08.08-.18.11-.27.03-.08.07-.22.07-.39h-1.64c0-.11.03-.17.02-.15,0,0-.01.03-.03.08-.04.09-.12.22-.22.39-.21.32-.5.72-.81,1.1l1.26,1.08ZM56.24,86.28c-.12-1.01-.12-1.39-.04-1.68.08-.28.26-.55.84-1.27l-1.27-1.06c-.55.67-.97,1.21-1.16,1.88-.18.66-.12,1.38,0,2.32l1.63-.19ZM57.5,90.54c-.57-1.27-1.11-3.22-1.25-4.27l-1.63.22c.16,1.22.75,3.33,1.39,4.74l1.5-.69ZM60.47,94.94c-1.22-1.28-2.37-2.98-2.97-4.38l-1.51.66c.69,1.61,1.95,3.48,3.3,4.88l1.18-1.16ZM62.58,97.13l-2.11-2.19-1.18,1.16,2.11,2.19,1.18-1.16ZM67.15,97.59c0-.31-.15-.57-.34-.73-.16-.14-.34-.2-.46-.23-.24-.06-.54-.08-.88-.08-.7,0-1.82.1-3.58.33l.2,1.65c1.75-.22,2.79-.31,3.39-.31.15,0,.25,0,.33,0,.04,0,.07,0,.09,0,.02,0,.03,0,.03,0,0,0,0,0-.01,0,0,0-.02,0-.03-.01-.03-.01-.08-.04-.13-.08-.13-.11-.26-.31-.26-.56h1.64ZM64.36,102.34c.74-1.07,1.41-2.08,1.9-2.87.24-.39.44-.73.59-1,.07-.13.13-.26.18-.37.02-.05.05-.12.07-.18.02-.05.05-.17.05-.32h-1.64c0-.07,0-.12.01-.14,0-.03.01-.04.01-.05,0,0,0,0,0,.02-.02.05-.06.13-.12.24-.12.23-.3.54-.54.92-.47.76-1.12,1.75-1.85,2.79l1.34.96ZM62.02,106.07c.06.18.01.3.03.23,0-.03.03-.1.07-.21.09-.22.24-.53.45-.91.42-.77,1.05-1.77,1.79-2.85l-1.35-.95c-.77,1.11-1.42,2.16-1.88,2.99-.23.41-.41.79-.54,1.1-.06.15-.12.31-.15.46-.03.11-.08.37,0,.65l1.57-.5ZM62.25,106.1c-.06,0-.14-.02-.21-.06-.03-.02-.05-.04-.06-.04,0,0,.01,0,.03.05l-1.55.55c.14.4.45.69.73.86.3.18.67.3,1.06.3v-1.67ZM68.93,104.35c-1.65.49-3.25.93-4.49,1.25-.62.16-1.15.29-1.54.38-.2.04-.36.08-.48.1-.14.02-.18.02-.16.02v1.67c.14,0,.3-.02.44-.05.15-.03.34-.07.55-.11.42-.09.97-.23,1.6-.39,1.26-.33,2.87-.78,4.54-1.27l-.46-1.6ZM80.92,100.15c-3.3,1.33-8.7,3.23-12,4.2l.46,1.6c3.35-.98,8.8-2.9,12.15-4.25l-.61-1.55ZM90.32,96.18c-1.83.84-6.08,2.62-9.39,3.96l.61,1.55c3.32-1.34,7.6-3.13,9.47-4l-.68-1.52ZM94.66,93.87c-.53.39-2.49,1.46-4.34,2.31l.68,1.52c1.85-.85,3.95-1.98,4.63-2.48l-.97-1.35ZM97.1,89.36c-.56,1.39-1.04,2.43-1.45,3.18-.43.77-.76,1.16-.99,1.34l.98,1.34c.52-.39.98-1.03,1.44-1.86.47-.84.97-1.95,1.54-3.37l-1.52-.63ZM98.7,85.33c0-.06,0-.11,0-.12,0,0,0-.02,0-.02,0,0,0,0,0,0,0,0,0,0,0,.01,0,0,0,.02,0,.03-.02.06-.05.14-.09.26-.08.23-.2.55-.35.94-.3.78-.71,1.82-1.16,2.93l1.52.63c.45-1.12.87-2.17,1.18-2.96.15-.4.28-.73.37-.98.04-.12.08-.24.11-.33.01-.04.03-.09.04-.14,0-.02.03-.13.03-.25h-1.64ZM96.14,87.35c1.01-.42,1.92-.78,2.57-1.01.33-.11.56-.19.7-.22.08-.02.07,0,.02-.01-.02,0-.14,0-.3-.08-.09-.04-.2-.13-.3-.26-.1-.15-.14-.31-.14-.45h1.64c0-.16-.04-.33-.15-.48-.1-.15-.22-.24-.32-.29-.18-.09-.34-.1-.41-.1-.15,0-.31.03-.41.05-.24.05-.54.15-.88.27-.69.24-1.63.61-2.66,1.04l.63,1.54ZM89.01,90.06c1.88-.58,5.12-1.81,7.15-2.72l-.66-1.52c-1.97.88-5.15,2.09-6.96,2.65l.48,1.59ZM84.64,91c.17.05.34.04.44.03.12,0,.25-.02.38-.04.27-.04.6-.11.97-.19.74-.17,1.67-.43,2.61-.75l-.51-1.58c-.9.3-1.79.55-2.47.71-.34.08-.63.14-.84.17-.1.02-.18.02-.22.03-.07,0-.02,0,.08.02l-.42,1.61ZM86.59,88.14c-.74.33-1.37.67-1.79.93-.19.12-.41.27-.55.43-.04.04-.1.11-.15.2-.04.08-.13.25-.13.48,0,.29.15.54.35.69.17.12.34.16.42.17l.22-1.65s.18.03.33.14c.19.14.32.37.33.64,0,.21-.08.35-.1.4-.03.06-.06.09-.07.1,0,.01.05-.04.23-.16.33-.21.89-.51,1.59-.82l-.67-1.52ZM93.85,84.43c-2.59,1.42-5.86,3.07-7.26,3.71l.67,1.52c1.46-.66,4.76-2.34,7.37-3.76l-.78-1.47ZM102.06,79.37c-1.92,1.39-5.63,3.65-8.21,5.06l.78,1.47c2.62-1.43,6.39-3.72,8.39-5.17l-.96-1.36ZM108.67,73.65c-1.7,1.75-4.68,4.32-6.61,5.71l.96,1.36c2-1.45,5.05-4.08,6.82-5.9l-1.17-1.17ZM113.4,68.08c-.87,1.28-2.98,3.8-4.73,5.57l1.16,1.18c1.8-1.81,3.98-4.41,4.93-5.81l-1.36-.94ZM116.42,62.33c-.82,1.88-2.19,4.47-3.03,5.77l1.38.91c.9-1.39,2.31-4.07,3.16-6.01l-1.51-.67ZM118.3,57.1c-.25,1-1.06,3.35-1.88,5.23l1.51.67c.84-1.94,1.69-4.38,1.97-5.49l-1.59-.41ZM118.69,54.13c0,.6-.17,1.92-.4,3l1.61.34c.23-1.11.43-2.56.43-3.34h-1.64ZM117.61,53.09c.35.13.59.23.76.32.17.09.23.14.25.17,0,0,.07.04.07.56h1.64c0-.53-.03-1.15-.48-1.66-.39-.44-1-.7-1.68-.95l-.56,1.57ZM114.44,52.15c.9.19,2.33.63,3.17.94l.57-1.56c-.9-.34-2.41-.8-3.4-1.01l-.34,1.63ZM109.48,51.59c1.84.08,4.07.32,4.92.54l.41-1.61c-1.03-.27-3.41-.51-5.26-.59l-.07,1.66ZM105.15,51.58c.21-.04.8-.08,1.64-.08s1.77.03,2.68.09l.11-1.66c-.94-.06-1.94-.09-2.78-.09s-1.56.03-1.96.11l.32,1.63ZM104.08,51.8c.49-.1.86-.18,1.06-.22l-.3-1.64c-.22.04-.6.12-1.09.22l.33,1.63ZM45.74,88.03l2.72-.81-.47-1.6-2.72.81.47,1.6ZM20.65,114.13s.23-.07.47,0c.14.05.28.13.38.27.1.13.15.27.17.38.03.18-.01.32-.02.36-.02.05-.03.09-.04.1-.01.03,0,.01.06-.09.13-.18.36-.47.74-.92.74-.89,1.98-2.32,3.86-4.44,3.74-4.23,10-11.18,19.85-22l-1.21-1.13c-9.85,10.82-16.11,17.78-19.86,22.02-1.88,2.12-3.13,3.56-3.89,4.47-.38.45-.64.79-.81,1.01-.07.1-.16.22-.22.34-.02.03-.04.09-.06.16-.01.05-.06.2-.03.39.02.11.06.25.17.39.11.14.25.23.39.28.24.08.44.02.5,0l-.46-1.6ZM29.33,111.65c-2.19.61-4.26,1.19-5.83,1.64-1.54.44-2.67.77-2.93.87l.59,1.55s0,0,0,0c0,0,0,0,.02,0,.01,0,.03-.01.05-.02.05-.02.11-.03.18-.06.15-.05.35-.11.59-.18.49-.14,1.15-.33,1.93-.56,1.57-.45,3.63-1.02,5.82-1.63l-.44-1.61ZM43.85,107.55c-3.62,1.05-10.14,2.88-14.51,4.1l.44,1.61c4.37-1.22,10.91-3.05,14.53-4.1l-.45-1.6ZM52.87,104.92c-1.34.44-5.39,1.61-9.02,2.63l.44,1.61c3.62-1.01,7.71-2.2,9.09-2.65l-.51-1.58ZM56.87,102.33c-.74.77-1.29,1.27-1.87,1.64-.57.37-1.2.65-2.13.94l.49,1.59c1-.32,1.78-.65,2.52-1.13.73-.48,1.39-1.08,2.16-1.89l-1.18-1.16ZM58.75,100.31l-1.89,2.03,1.2,1.14,1.89-2.03-1.2-1.14ZM53.24,94.35c.61,1.1,2.1,3.11,5.49,7.08l1.24-1.09c-3.4-3.99-4.78-5.88-5.3-6.81l-1.43.82ZM51.17,89.11c.57,1.81,1.5,4.14,2.05,5.21l1.46-.78c-.5-.96-1.39-3.18-1.94-4.94l-1.57.51ZM50.15,85.86l1.02,3.25,1.57-.5-1.02-3.25-1.57.5ZM48.45,87.22l2.72-.81-.47-1.6-2.72.81.47,1.6ZM94.84,60.81c1.85-.63,4.42-1.37,5.69-1.63l-.32-1.63c-1.37.27-4.01,1.04-5.9,1.68l.53,1.58ZM88.56,63.48c1.62-.81,4.49-2.04,6.28-2.67l-.54-1.58c-1.87.65-4.8,1.91-6.48,2.75l.73,1.49ZM82.12,67.34c1.89-1.27,4.79-3.02,6.45-3.86l-.74-1.49c-1.72.88-4.68,2.67-6.61,3.96l.91,1.39ZM75.22,72.55c1.89-1.56,5.02-3.92,6.91-5.22l-.93-1.38c-1.93,1.33-5.1,3.71-7.03,5.31l1.04,1.29ZM67.63,79.29c2.26-2.13,5.7-5.17,7.59-6.74l-1.04-1.29c-1.92,1.59-5.38,4.65-7.67,6.81l1.12,1.22ZM63.73,82.23c.21.22.24.47.23.6,0,.12-.04.21-.05.24-.03.07-.05.1-.04.08.01-.02.06-.08.15-.19.17-.2.44-.5.8-.87.71-.74,1.71-1.74,2.82-2.82l-1.14-1.2c-1.12,1.09-2.14,2.11-2.86,2.87-.36.38-.66.7-.86.94-.1.12-.2.24-.27.35-.03.05-.09.14-.13.24-.02.05-.06.16-.06.29,0,.14.02.41.24.63l1.17-1.17ZM66.63,79.58c-1.04.75-1.99,1.41-2.69,1.86-.35.23-.63.4-.81.5-.05.03-.08.04-.11.06-.01,0-.02.01-.03.02,0,0-.01,0-.01,0,0,0,0,0,0,0,0,0,0,0,.02,0,.01,0,.04-.01.08-.02.04,0,.11-.01.22,0,.1.02.28.07.44.23l-1.17,1.17c.17.17.36.23.47.24.11.02.21,0,.27,0,.11-.02.2-.05.26-.07.12-.04.24-.11.36-.17.24-.13.56-.33.92-.56.73-.48,1.7-1.15,2.75-1.91l-.95-1.36ZM76.45,72.82c-3.35,2.19-7.76,5.24-9.83,6.76l.96,1.35c2.04-1.49,6.43-4.53,9.76-6.71l-.89-1.4ZM86.42,66.73c-2.16,1.15-6.63,3.91-9.97,6.09l.89,1.4c3.34-2.18,7.75-4.91,9.84-6.02l-.76-1.48ZM94.37,62.9c-2.26.95-5.81,2.66-7.96,3.84l.78,1.47c2.1-1.15,5.6-2.83,7.81-3.76l-.63-1.54ZM102.89,59.9c-2.45.72-6.25,2.09-8.51,3l.61,1.55c2.22-.9,5.97-2.24,8.36-2.95l-.46-1.6ZM109.86,58.07c-1.44.27-4.55,1.11-6.97,1.82l.46,1.6c2.42-.71,5.47-1.53,6.82-1.79l-.3-1.64ZM111.65,58.06c0-.2.07-.34.12-.42.05-.08.1-.12.12-.14.04-.03.06-.04.02-.02-.07.03-.2.09-.41.16-.41.13-.99.29-1.66.43l.35,1.63c.69-.15,1.33-.32,1.81-.48.24-.08.46-.16.64-.25.09-.04.2-.11.3-.2.06-.05.34-.29.34-.72h-1.64ZM107.6,58.67c1.33-.02,2.53,0,3.39.04.44.02.77.05.99.07.05,0,.1.01.13.02.02,0,.03,0,.04,0,0,0,.01,0,.01,0,0,0,0,0,0,0,0,0,0,0-.02,0-.01,0-.04-.02-.08-.04-.03-.02-.11-.06-.2-.15-.09-.09-.21-.28-.21-.55h1.64c0-.28-.13-.48-.23-.58-.09-.1-.18-.15-.23-.18-.1-.06-.2-.08-.25-.1-.12-.03-.26-.05-.39-.07-.28-.03-.66-.06-1.11-.08-.91-.04-2.14-.06-3.49-.04l.02,1.67ZM100.53,59.18c1.25-.25,4.45-.51,7.07-.51v-1.67c-2.67,0-5.99.26-7.38.54l.32,1.63Z"/>
        </g>
      </g>
    </g>
  </g>
</svg>